# This file uses centimeters as units for non-parametric coordinates.

mtllib SlipNslide.mtl
g default
v 3.247946 0.000000 -10.615069
v 3.744502 0.000000 -10.615069
v 3.958878 0.262796 -10.615069
v 3.814912 0.558025 -10.615133
v 3.247946 0.525592 -10.615069
v 3.149428 0.262796 -10.615069
v 3.238200 0.000000 8.664642
v 3.754248 0.000000 8.743354
v 3.967692 0.262796 8.782709
v 3.827573 0.550503 8.759923
v 3.238200 0.525592 8.664642
v 2.980175 0.262796 8.625287
v 2.822696 0.000000 9.107906
v 2.938700 0.000000 9.584354
v 2.968535 0.262796 9.866800
v 2.941516 0.543224 9.722986
v 2.822696 0.525592 9.107906
v 2.759507 0.262796 8.825460
v 0.317466 0.000000 9.918972
v 0.423080 0.000000 10.335762
v 0.480294 0.262796 10.611181
v 0.449715 0.542326 10.471366
v 0.317466 0.525592 9.918972
v 0.254856 0.262796 9.643553
v -3.247946 0.525591 -10.615069
v -3.814912 0.558025 -10.615133
v -3.964900 0.262796 -10.615069
v -3.744502 0.000000 -10.615069
v -3.247946 0.000000 -10.615069
v -3.149428 0.262796 -10.615069
v -3.238200 0.525591 8.664642
v -3.827573 0.550503 8.759923
v -3.967692 0.262796 8.782709
v -3.754248 0.000000 8.743354
v -3.238200 0.000000 8.664642
v -2.980175 0.262796 8.625287
v -2.822696 0.525591 9.107906
v -2.941516 0.543224 9.722986
v -2.968535 0.262796 9.866800
v -2.938700 0.000000 9.584354
v -2.822696 0.000000 9.107906
v -2.759507 0.262796 8.825460
v -0.313494 0.525591 9.919911
v -0.455931 0.542327 10.469877
v -0.488879 0.262796 10.609130
v -0.427053 0.000000 10.334824
v -0.313494 0.000000 9.919911
v -0.246174 0.262796 9.645604
v -3.526149 0.698265 8.709917
v -2.885489 0.693273 9.402053
v -0.382642 0.692033 10.206160
v 0.381721 0.692037 10.206393
v 2.885489 0.693273 9.402053
v 3.526149 0.698265 8.709917
v 3.525709 0.709005 -10.615167
v 3.508602 -0.039131 -10.615107
v -3.532026 -0.039131 -10.615107
v -3.525710 0.709004 -10.615167
v 3.530489 0.629139 -10.764693
v 3.277347 0.469928 -10.764596
v 3.537760 0.246297 -10.765893
v 3.198446 0.194969 -10.764596
v 3.225790 0.073172 -10.764596
v 3.509546 0.022037 -10.764633
v -3.534797 0.026568 -10.764633
v -3.266128 0.079870 -10.764596
v -3.530124 0.246886 -10.765893
v -3.209325 0.220390 -10.764596
v -3.304168 0.484886 -10.764596
v -3.526720 0.629139 -10.764693
v 3.763453 0.502916 -10.764660
v 3.889585 0.278198 -10.764596
v 3.694959 0.052813 -10.764596
v -3.697553 0.063057 -10.764596
v -3.887465 0.278198 -10.764596
v -3.757594 0.510395 -10.764660
vt 0.090862 0.298699
vt 0.966408 0.648861
vt 0.893552 0.308369
vt 0.964663 0.624656
vt 0.951004 0.615705
vt 0.115701 0.621577
vt 0.087626 0.320190
vt 0.935973 0.621861
vt 0.118827 0.634624
vt 0.933980 0.635565
vt 0.936328 0.649471
vt 0.124097 0.662241
vt 0.121519 0.648428
vt 0.947376 0.654798
vt 0.109132 0.600014
vt 0.942915 0.646043
vt 0.938870 0.635749
vt 0.952649 0.636595
vt 0.954223 0.651483
vt 0.961414 0.637302
vt 0.959379 0.650003
vt 0.072372 0.281440
vt 0.052546 0.286310
vt 0.066772 0.666708
vt 0.078256 0.672152
vt 0.104979 0.680196
vt 0.092016 0.675913
vt 0.100565 0.591043
vt 0.038386 0.177212
vt 0.021043 0.181646
vt 0.030743 0.779196
vt 0.043713 0.781506
vt 0.070345 0.787246
vt 0.056444 0.784475
vt 0.063750 0.487316
vt 0.938169 0.935337
vt 0.936218 0.949299
vt 0.125814 0.952499
vt 0.128160 0.938642
vt 0.938490 0.962960
vt 0.953734 0.968881
vt 0.120457 0.979449
vt 0.123359 0.966349
vt 0.967245 0.959409
vt 0.086960 0.007594
vt 0.892927 0.015017
vt 0.090287 0.029070
vt 0.949169 0.929580
vt 0.131123 0.923594
vt 0.961568 0.935962
vt 0.963642 0.948015
vt 0.955047 0.947354
vt 0.955586 0.933327
vt 0.941193 0.948804
vt 0.944551 0.939464
vt 0.095581 0.925691
vt 0.108507 0.921126
vt 0.070481 0.935465
vt 0.081861 0.929757
vt 0.052024 0.041623
vt 0.071871 0.046409
vt 0.122803 0.915126
vt 0.056814 0.817899
vt 0.070619 0.814651
vt 0.031407 0.824036
vt 0.044208 0.821342
vt 0.021007 0.146254
vt 0.038291 0.150944
vt 0.910075 0.586529
vt 0.968723 0.935134
vt 0.942024 0.626921
vt 0.950463 0.622205
vt 0.959753 0.629609
vt 0.961946 0.954727
vt 0.953093 0.962191
vt 0.944296 0.957513
vt 0.970294 0.948943
vt 0.892951 0.026956
vt 0.967992 0.636229
vt 0.893564 0.318324
vt 0.893526 0.297395
vt 0.014913 0.777025
vt 0.015155 0.826379
vt 0.062178 0.948996
vt 0.116679 0.992346
vt 0.892900 0.006022
vt 0.058120 0.653414
vt 0.111696 0.608751
vt 0.935103 0.593666
vt 0.930048 0.659685
vt 0.094677 0.361348
vt 0.102772 0.351950
vt 0.932252 0.925065
vt 0.086214 0.790319
vt 0.086388 0.811087
vt 0.903354 0.324378
vt 0.063301 0.466461
vt 0.938012 0.991443
vt 0.938247 0.977009
vt 0.119328 0.685872
vt 0.127311 0.677233
vt 0.935533 0.607933
vn 0.051271 -0.998684 0.001357
vn -0.148461 -0.988918 -0.000075
vn 0.000676 -0.999999 0.000998
vn 0.775566 -0.631266 -0.000371
vn 0.775566 -0.631266 -0.000371
vn 0.775566 -0.631266 -0.000371
vn 0.775566 -0.631266 -0.000371
vn 0.898941 0.438069 -0.000413
vn 0.898941 0.438069 -0.000413
vn 0.898941 0.438069 -0.000413
vn 0.898941 0.438069 -0.000413
vn -0.532709 0.846299 0.000107
vn -0.532709 0.846299 0.000107
vn -0.532709 0.846299 0.000107
vn -0.532709 0.846299 0.000107
vn -0.827415 0.561577 -0.003845
vn -0.827415 0.561577 -0.003845
vn -0.827415 0.561577 -0.003845
vn -0.827415 0.561577 -0.003845
vn -0.003123 0.002164 -0.999993
vn -0.003123 0.002164 -0.999993
vn -0.003123 0.002164 -0.999993
vn -0.003123 0.002164 -0.999993
vn -0.002141 -0.003635 -0.999991
vn -0.002141 -0.003635 -0.999991
vn -0.002141 -0.003635 -0.999991
vn -0.002141 -0.003635 -0.999991
vn -0.000000 -1.000000 -0.000000
vn -0.000000 -1.000000 -0.000000
vn -0.000000 -1.000000 -0.000000
vn -0.000000 -1.000000 -0.000000
vn 0.580234 -0.603457 0.546963
vn 0.580234 -0.603457 0.546963
vn 0.580234 -0.603457 0.546963
vn 0.580234 -0.603457 0.546963
vn 0.678724 0.383356 0.626397
vn 0.678724 0.383356 0.626397
vn 0.678724 0.383356 0.626397
vn 0.678724 0.383356 0.626397
vn -0.420686 0.820181 -0.387721
vn -0.420686 0.820181 -0.387721
vn -0.420686 0.820181 -0.387721
vn -0.420686 0.820181 -0.387721
vn -0.537806 0.654238 -0.531732
vn -0.537806 0.654238 -0.531732
vn -0.537806 0.654238 -0.531732
vn -0.537806 0.654238 -0.531732
vn -0.000000 -1.000000 -0.000000
vn -0.000000 -1.000000 -0.000000
vn -0.000000 -1.000000 -0.000000
vn -0.000000 -1.000000 -0.000000
vn 0.196108 -0.728803 0.656040
vn 0.196108 -0.728803 0.656040
vn 0.196108 -0.728803 0.656040
vn 0.196108 -0.728803 0.656040
vn 0.255217 0.457659 0.851711
vn 0.255217 0.457659 0.851712
vn 0.255217 0.457659 0.851711
vn 0.255217 0.457659 0.851711
vn -0.150969 0.871032 -0.467452
vn -0.150969 0.871032 -0.467452
vn -0.150969 0.871032 -0.467452
vn -0.150969 0.871032 -0.467452
vn -0.209751 0.734822 -0.645012
vn -0.209751 0.734822 -0.645013
vn -0.209751 0.734822 -0.645012
vn -0.209751 0.734822 -0.645012
vn 0.532709 0.846298 0.000107
vn 0.532709 0.846298 0.000107
vn 0.532709 0.846298 0.000107
vn 0.532709 0.846298 0.000107
vn -0.895266 0.445532 -0.000270
vn -0.895266 0.445532 -0.000270
vn -0.895266 0.445532 -0.000270
vn -0.895266 0.445532 -0.000270
vn -0.771218 -0.636572 -0.000250
vn -0.771218 -0.636572 -0.000250
vn -0.771218 -0.636572 -0.000250
vn -0.771218 -0.636572 -0.000250
vn -0.000733 -0.999999 0.000999
vn -0.052840 -0.998602 0.001400
vn -0.053484 -0.998568 0.001405
vn -0.053484 -0.998568 0.001405
vn 0.827415 0.561578 -0.003845
vn 0.827415 0.561578 -0.003845
vn 0.827415 0.561578 -0.003845
vn 0.827415 0.561578 -0.003845
vn 0.002438 -0.003907 -0.999989
vn 0.002438 -0.003907 -0.999989
vn 0.002438 -0.003907 -0.999989
vn 0.002438 -0.003907 -0.999989
vn 0.003300 0.002321 -0.999992
vn 0.003300 0.002321 -0.999992
vn 0.003300 0.002321 -0.999992
vn 0.003300 0.002321 -0.999992
vn 0.420686 0.820180 -0.387722
vn 0.420686 0.820180 -0.387721
vn 0.420686 0.820180 -0.387721
vn 0.420686 0.820180 -0.387721
vn -0.678724 0.383356 0.626396
vn -0.678724 0.383356 0.626396
vn -0.678724 0.383356 0.626396
vn -0.678724 0.383356 0.626396
vn -0.580234 -0.603457 0.546963
vn -0.580234 -0.603457 0.546963
vn -0.580234 -0.603457 0.546963
vn -0.580234 -0.603457 0.546963
vn 0.000000 -1.000000 0.000000
vn 0.000000 -1.000000 0.000000
vn 0.000000 -1.000000 0.000000
vn 0.000000 -1.000000 0.000000
vn 0.537804 0.654238 -0.531732
vn 0.537804 0.654238 -0.531732
vn 0.537804 0.654238 -0.531732
vn 0.537804 0.654238 -0.531732
vn 0.150869 0.871173 -0.467222
vn 0.150869 0.871173 -0.467222
vn 0.150869 0.871173 -0.467222
vn 0.150869 0.871173 -0.467222
vn -0.255332 0.457831 0.851584
vn -0.255332 0.457831 0.851585
vn -0.255332 0.457831 0.851585
vn -0.255332 0.457831 0.851585
vn -0.196155 -0.728952 0.655860
vn -0.196155 -0.728952 0.655860
vn -0.196155 -0.728952 0.655860
vn -0.196155 -0.728952 0.655860
vn 0.000000 -1.000000 0.000000
vn 0.000000 -1.000000 0.000000
vn 0.000000 -1.000000 0.000000
vn 0.000000 -1.000000 0.000000
vn 0.209539 0.735065 -0.644805
vn 0.209539 0.735065 -0.644805
vn 0.209539 0.735065 -0.644805
vn 0.209539 0.735065 -0.644805
vn -0.001135 -0.722799 0.691057
vn -0.001135 -0.722799 0.691057
vn -0.001135 -0.722799 0.691057
vn -0.001135 -0.722799 0.691057
vn -0.001688 0.446626 0.894719
vn -0.001688 0.446626 0.894719
vn -0.001688 0.446626 0.894719
vn -0.001688 0.446626 0.894719
vn -0.000257 0.864926 -0.501899
vn -0.000257 0.864926 -0.501899
vn -0.000257 0.864926 -0.501899
vn -0.000257 0.864926 -0.501899
vn -0.001826 0.722786 -0.691069
vn -0.001826 0.722786 -0.691069
vn -0.001826 0.722786 -0.691069
vn -0.001826 0.722786 -0.691069
vn 0.000000 -1.000000 -0.000000
vn 0.000000 -1.000000 -0.000000
vn 0.000000 -1.000000 -0.000000
vn 0.000000 -1.000000 -0.000000
vn 0.000000 -1.000000 -0.000000
vn 0.000000 -1.000000 -0.000000
vn 0.000000 -1.000000 -0.000000
vn 0.000000 -1.000000 -0.000000
vn 0.000000 1.000000 0.000000
vn 0.000000 1.000000 0.000000
vn 0.000000 1.000000 0.000000
vn 0.000000 1.000000 0.000000
vn 0.000000 0.000000 -1.000000
vn 0.000000 0.000000 -1.000000
vn 0.000000 0.000000 -1.000000
vn 0.000000 0.000000 -1.000000
vn -0.365020 0.865472 0.343103
vn -0.365020 0.865472 0.343103
vn -0.365020 0.865472 0.343102
vn -0.365020 0.865472 0.343103
vn -0.132924 0.893591 0.428750
vn -0.132924 0.893591 0.428750
vn -0.132924 0.893591 0.428750
vn -0.132924 0.893591 0.428750
vn -0.000510 0.870147 0.492791
vn -0.000510 0.870147 0.492791
vn -0.000510 0.870147 0.492792
vn -0.000510 0.870147 0.492791
vn 0.132953 0.893477 0.428977
vn 0.132953 0.893477 0.428977
vn 0.132953 0.893477 0.428977
vn 0.132953 0.893477 0.428977
vn 0.365020 0.865471 0.343103
vn 0.365020 0.865471 0.343103
vn 0.365020 0.865471 0.343103
vn 0.365020 0.865471 0.343103
vn 0.451335 0.892354 0.000268
vn 0.451335 0.892354 0.000268
vn 0.451335 0.892354 0.000268
vn 0.451335 0.892354 0.000268
vn 0.002672 0.002456 -0.999993
vn 0.002672 0.002456 -0.999993
vn 0.002672 0.002456 -0.999994
vn 0.002672 0.002456 -0.999994
vn 0.002983 -0.004280 -0.999986
vn 0.002983 -0.004280 -0.999986
vn 0.002983 -0.004280 -0.999986
vn 0.002983 -0.004280 -0.999986
vn -0.003112 -0.004218 -0.999986
vn -0.003112 -0.004218 -0.999986
vn -0.003112 -0.004218 -0.999986
vn -0.003112 -0.004218 -0.999986
vn -0.002623 0.002417 -0.999994
vn -0.002623 0.002417 -0.999994
vn -0.002623 0.002417 -0.999994
vn -0.002623 0.002417 -0.999994
vn -0.451335 0.892355 0.000268
vn -0.451335 0.892355 0.000268
vn -0.451335 0.892355 0.000268
vn -0.451335 0.892355 0.000268
vn 0.000000 1.000000 0.000000
vn 0.000000 1.000000 0.000000
vn 0.000000 1.000000 0.000000
vn 0.000000 1.000000 0.000000
vn 0.000000 1.000000 0.000000
vn 0.000000 1.000000 0.000000
vn 0.000000 1.000000 0.000000
vn 0.000000 1.000000 0.000000
vn 0.000000 -1.000000 0.000000
vn 0.000000 -1.000000 0.000000
vn 0.000000 -1.000000 0.000000
vn 0.000000 -1.000000 0.000000
vn 0.000000 -1.000000 0.000000
vn 0.000000 -1.000000 0.000000
vn 0.000000 -1.000000 0.000000
vn 0.000000 -1.000000 0.000000
vn -0.495928 0.768222 -0.404834
vn -0.495928 0.768222 -0.404834
vn -0.495928 0.768222 -0.404834
vn -0.495928 0.768222 -0.404834
vn -0.888189 0.293035 -0.353907
vn -0.888189 0.293035 -0.353907
vn -0.888189 0.293035 -0.353907
vn -0.888189 0.293035 -0.353907
vn -0.150235 -0.905775 -0.396234
vn -0.150235 -0.905775 -0.396234
vn -0.150235 -0.905775 -0.396234
vn -0.150235 -0.905775 -0.396234
vn 0.148071 -0.885102 -0.441213
vn 0.148071 -0.885102 -0.441213
vn 0.148071 -0.885102 -0.441213
vn 0.148071 -0.885102 -0.441213
vn 0.501200 0.765042 -0.404363
vn 0.501200 0.765042 -0.404363
vn 0.501200 0.765042 -0.404363
vn 0.501200 0.765042 -0.404363
vn 0.852874 0.312755 -0.418080
vn 0.852873 0.312755 -0.418080
vn 0.852874 0.312755 -0.418080
vn 0.852873 0.312755 -0.418080
vn -0.000459 -0.890227 -0.455517
vn -0.000459 -0.890227 -0.455517
vn -0.000459 -0.890227 -0.455517
vn -0.000459 -0.890227 -0.455517
vn 0.001877 0.938263 -0.345917
vn 0.001877 0.938263 -0.345917
vn 0.001877 0.938263 -0.345917
vn 0.001877 0.938263 -0.345917
vn 0.424104 0.798779 -0.426718
vn 0.424104 0.798779 -0.426718
vn 0.424104 0.798779 -0.426718
vn 0.424104 0.798779 -0.426718
vn 0.818350 0.425015 -0.386865
vn 0.818350 0.425015 -0.386865
vn 0.818350 0.425015 -0.386865
vn 0.818350 0.425015 -0.386865
vn 0.151908 -0.915118 -0.373475
vn 0.151908 -0.915118 -0.373475
vn 0.151908 -0.915118 -0.373475
vn 0.151908 -0.915118 -0.373475
vn 0.698731 -0.585403 -0.411192
vn 0.698731 -0.585403 -0.411192
vn 0.698731 -0.585403 -0.411192
vn 0.698731 -0.585403 -0.411192
vn -0.180149 -0.893515 -0.411312
vn -0.180149 -0.893515 -0.411312
vn -0.180149 -0.893515 -0.411312
vn -0.180149 -0.893515 -0.411312
vn -0.682294 -0.585750 -0.437460
vn -0.682294 -0.585750 -0.437460
vn -0.682294 -0.585750 -0.437460
vn -0.682294 -0.585750 -0.437460
vn -0.417484 0.804881 -0.421752
vn -0.417484 0.804881 -0.421752
vn -0.417484 0.804881 -0.421751
vn -0.417484 0.804881 -0.421752
vn -0.806021 0.427585 -0.409268
vn -0.806021 0.427585 -0.409268
vn -0.806022 0.427585 -0.409268
vn -0.806022 0.427585 -0.409268
vn 0.136457 -0.990646 -0.000069
vn 0.051826 -0.998655 0.001361
vn 0.051826 -0.998655 0.001361
s 1
g SlipNslide_mesh
usemtl SlipNslide_mat
f 7/1/1 1/81/2 56/3/3
s off
f 2/89/4 3/102/5 9/6/6 8/88/7
f 3/102/8 4/8/9 10/9/10 9/6/11
f 55/10/12 5/11/13 11/12/14 54/13/15
f 5/11/16 6/90/17 12/101/18 11/12/19
f 60/16/20 59/17/21 61/18/22 62/19/23
f 64/20/24 63/21/25 62/19/26 61/18/27
f 13/22/28 7/1/29 8/7/30 14/23/31
f 8/88/32 9/6/33 15/24/34 14/87/35
f 9/6/36 10/9/37 16/25/38 15/24/39
f 54/13/40 11/12/41 17/26/42 53/27/43
f 11/12/44 12/101/45 18/100/46 17/26/47
f 19/29/48 13/22/49 14/23/50 20/30/51
f 14/87/52 15/24/53 21/31/54 20/82/55
f 15/24/56 16/25/57 22/32/58 21/31/59
f 53/27/60 17/26/61 23/33/62 52/34/63
f 17/26/64 18/100/65 24/94/66 23/33/67
f 25/36/68 58/37/69 49/38/70 31/39/71
f 26/40/72 27/99/73 33/42/74 32/43/75
f 27/99/76 28/98/77 34/85/78 33/42/79
s 2
f 57/46/80 35/47/81 34/45/82 28/86/83
s off
f 30/93/84 25/36/85 31/39/86 36/49/87
f 66/50/88 65/51/89 67/52/90 68/53/91
f 70/54/92 69/55/93 68/53/94 67/52/95
f 31/39/96 49/38/97 50/56/98 37/57/99
f 32/43/100 33/42/101 39/58/102 38/59/103
f 33/42/104 34/85/105 40/84/106 39/58/107
f 35/47/108 41/61/109 40/60/110 34/45/111
f 36/49/112 31/39/113 37/57/114 42/62/115
f 37/57/116 50/56/117 51/63/118 43/64/119
f 38/59/120 39/58/121 45/65/122 44/66/123
f 39/58/124 40/84/125 46/83/126 45/65/127
f 41/61/128 47/68/129 46/67/130 40/60/131
f 42/62/132 37/57/133 43/64/134 48/95/135
f 20/82/136 21/31/137 45/65/138 46/83/139
f 21/31/140 22/32/141 44/66/142 45/65/143
f 52/34/144 23/33/145 43/64/146 51/63/147
f 23/33/148 24/94/149 48/95/150 43/64/151
f 47/68/152 19/29/153 20/30/154 46/67/155
f 47/68/156 29/78/157 13/22/158 19/29/159
f 36/15/160 42/28/161 48/35/162 30/69/163
f 63/21/164 66/50/165 68/53/166 62/19/167
f 49/38/168 32/43/169 38/59/170 50/56/171
f 51/63/172 50/56/173 38/59/174 44/66/175
f 22/32/176 52/34/177 51/63/178 44/66/179
f 16/25/180 53/27/181 52/34/182 22/32/183
f 10/9/184 54/13/185 53/27/186 16/25/187
f 4/8/188 55/10/189 54/13/190 10/9/191
f 61/18/192 59/17/193 71/71/194 72/72/195
f 73/73/196 64/20/197 61/18/198 72/72/199
f 67/52/200 65/51/201 74/74/202 75/75/203
f 76/76/204 70/54/205 67/52/206 75/75/207
f 49/38/208 58/37/209 26/40/210 32/43/211
f 30/69/212 18/91/213 12/92/214 6/96/215
f 30/69/216 48/35/217 24/97/218 18/91/219
f 13/22/220 29/78/221 1/81/222 7/1/223
f 35/47/224 29/78/225 47/68/226 41/61/227
f 5/11/228 55/10/229 59/17/230 60/16/231
f 6/14/232 5/11/233 60/16/234 62/19/235
f 56/79/236 1/2/237 63/21/238 64/20/239
f 29/70/240 57/77/241 65/51/242 66/50/243
f 58/37/244 25/36/245 69/55/246 70/54/247
f 25/36/248 30/48/249 68/53/250 69/55/251
f 1/2/252 29/70/253 66/50/254 63/21/255
f 30/48/256 6/14/257 62/19/258 68/53/259
f 55/10/260 4/8/261 71/71/262 59/17/263
f 4/8/264 3/5/265 72/72/266 71/71/267
f 2/4/268 56/79/269 64/20/270 73/73/271
f 3/5/272 2/4/273 73/73/274 72/72/275
f 57/77/276 28/44/277 74/74/278 65/51/279
f 28/44/280 27/41/281 75/75/282 74/74/283
f 26/40/284 58/37/285 70/54/286 76/76/287
f 27/41/288 26/40/289 76/76/290 75/75/291
s 2
f 57/46/80 29/78/292 35/47/81
s 1
f 7/1/1 56/3/3 2/80/293 8/7/294
